<svg width="91" height="17" viewBox="0 0 91 17" fill="none" xmlns="http://www.w3.org/2000/svg">
<path d="M0.8125 8.41936C0.8125 3.83108 3.75438 1.26066 8.053 1.26066H13.2151V3.99408H8.21739C5.58526 3.99408 3.79592 5.48348 3.79592 8.41936C3.79592 11.3553 5.58526 12.8446 8.21739 12.8446H13.2151V15.5781H8.053C3.75438 15.5781 0.8125 12.9682 0.8125 8.41936ZM15.8882 11.0105V1.26253H18.7677V10.4185C18.7677 12.1928 19.6935 12.8242 21.2147 12.8242H22.9417C24.4439 12.8242 25.3887 12.1928 25.3887 10.4185V1.26253H28.2475V11.0311C28.2475 14.1111 26.1917 15.5782 23.4142 15.5782H20.7406C17.944 15.5782 15.8864 14.1094 15.8864 11.0105H15.8882ZM31.3531 1.26253H39.8882C42.8093 1.26253 44.2697 2.81198 44.2697 5.30002C44.2697 6.89065 43.5084 8.17586 42.2953 8.52246C43.5499 8.66488 44.1469 9.5623 44.1469 10.6433V15.5782H41.2466V11.3159C41.2466 10.5609 41.0198 10.0307 39.9919 10.0307H34.2535V15.5782H31.3531V1.26253ZM39.4987 7.3608C40.8157 7.3608 41.3503 6.66758 41.3503 5.64835C41.3503 4.54674 40.8157 3.95647 39.459 3.95647H34.2552V7.36253H39.5005L39.4987 7.3608ZM46.84 12.8652H54.8004C55.7676 12.8652 56.3838 12.335 56.3838 11.3758C56.3838 10.3772 55.7469 9.98941 54.738 9.90705L50.7266 9.60162C48.1967 9.41802 46.4697 8.15341 46.4697 5.46117C46.4697 2.78953 48.3819 1.26068 50.8911 1.26068H58.7684V3.9735H51.0556C49.9446 3.9735 49.3682 4.5037 49.3682 5.4423C49.3682 6.42036 49.986 6.82874 51.0763 6.93169L55.1482 7.21652C57.6367 7.40014 59.2824 8.70592 59.2824 11.3364C59.2824 13.8656 57.5346 15.5781 55.0046 15.5781H46.8382V12.8652H46.84ZM60.7424 8.39898C60.7424 4.05434 63.9094 1.01721 68.1473 1.01721H68.1889C72.4253 1.01721 75.6146 4.05605 75.6146 8.39898C75.6146 12.7625 72.427 15.8219 68.1889 15.8219H68.1473C63.9111 15.8219 60.7424 12.7625 60.7424 8.39898ZM68.1682 13.049C70.7795 13.049 72.6934 11.213 72.6934 8.41957C72.6934 5.64669 70.7812 3.79009 68.1682 3.79009C65.5759 3.79009 63.6635 5.64669 63.6635 8.41957C63.6635 11.213 65.5759 13.049 68.1682 13.049ZM77.8952 1.26253H86.43C89.3511 1.26253 90.8117 2.81198 90.8117 5.30002C90.8117 6.89065 90.0502 8.17586 88.8372 8.52246C90.0918 8.66488 90.6888 9.5623 90.6888 10.6433V15.5782H87.7886V11.3159C87.7886 10.5609 87.5619 10.0307 86.5338 10.0307H80.7954V15.5782H77.8952V1.26253ZM86.0407 7.3608C87.3576 7.3608 87.8924 6.66758 87.8924 5.64835C87.8924 4.54674 87.3576 3.95647 86.0009 3.95647H80.7973V7.36253H86.0424L86.0407 7.3608Z" fill="black"/>
</svg>
